<mxfile host="app.diagrams.net" agent="Mozilla/5.0 (X11; Ubuntu; Linux x86_64; rv:128.0) Gecko/20100101 Firefox/128.0" version="24.7.5">
  <diagram name="Page-1" id="BAec64L_Z81vPXz8HiST">
    <mxGraphModel dx="1393" dy="788" grid="1" gridSize="10" guides="1" tooltips="1" connect="1" arrows="1" fold="1" page="1" pageScale="1" pageWidth="827" pageHeight="1169" math="0" shadow="0">
      <root>
        <mxCell id="0" />
        <mxCell id="1" parent="0" />
        <mxCell id="wz36yzEruvP4x7EnCw-V-7" value="&lt;font style=&quot;font-size: 15px;&quot;&gt;Receber e salvar foto em diretório&lt;/font&gt;" style="swimlane;whiteSpace=wrap;html=1;startSize=30;" parent="1" vertex="1">
          <mxGeometry x="52" y="60" width="734" height="890" as="geometry" />
        </mxCell>
        <mxCell id="wz36yzEruvP4x7EnCw-V-8" value="Imagem enviada " style="shape=folder;fontStyle=1;spacingTop=10;tabWidth=40;tabHeight=14;tabPosition=left;html=1;whiteSpace=wrap;" parent="wz36yzEruvP4x7EnCw-V-7" vertex="1">
          <mxGeometry x="40" y="82" width="90" height="60" as="geometry" />
        </mxCell>
        <mxCell id="wz36yzEruvP4x7EnCw-V-9" value="" style="ellipse;html=1;shape=startState;fillColor=#000000;strokeColor=#ff0000;" parent="wz36yzEruvP4x7EnCw-V-7" vertex="1">
          <mxGeometry x="216" y="92" width="30" height="30" as="geometry" />
        </mxCell>
        <mxCell id="wz36yzEruvP4x7EnCw-V-10" value="" style="edgeStyle=orthogonalEdgeStyle;html=1;verticalAlign=bottom;endArrow=open;endSize=8;strokeColor=#ff0000;rounded=0;" parent="wz36yzEruvP4x7EnCw-V-7" source="wz36yzEruvP4x7EnCw-V-9" edge="1">
          <mxGeometry relative="1" as="geometry">
            <mxPoint x="231" y="185" as="targetPoint" />
          </mxGeometry>
        </mxCell>
        <mxCell id="wz36yzEruvP4x7EnCw-V-11" value="&lt;div&gt;&lt;font size=&quot;1&quot;&gt;&lt;b style=&quot;font-size: 12px;&quot;&gt;Imagem é comprimida&lt;br&gt;e enviada ao servidor&lt;br&gt;&lt;/b&gt;&lt;/font&gt;&lt;/div&gt;" style="rounded=1;whiteSpace=wrap;html=1;arcSize=40;fontColor=#000000;fillColor=#ffffc0;strokeColor=#ff0000;" parent="wz36yzEruvP4x7EnCw-V-7" vertex="1">
          <mxGeometry x="150" y="185" width="162" height="65" as="geometry" />
        </mxCell>
        <mxCell id="wz36yzEruvP4x7EnCw-V-12" value="" style="edgeStyle=orthogonalEdgeStyle;html=1;verticalAlign=bottom;endArrow=open;endSize=8;strokeColor=#ff0000;rounded=0;entryX=0;entryY=0.5;entryDx=0;entryDy=0;" parent="wz36yzEruvP4x7EnCw-V-7" source="wz36yzEruvP4x7EnCw-V-11" edge="1" target="wz36yzEruvP4x7EnCw-V-16">
          <mxGeometry relative="1" as="geometry">
            <mxPoint x="490" y="240" as="targetPoint" />
          </mxGeometry>
        </mxCell>
        <mxCell id="wz36yzEruvP4x7EnCw-V-14" value="" style="endArrow=classic;html=1;rounded=0;entryX=0;entryY=0.5;entryDx=0;entryDy=0;exitX=0;exitY=0;exitDx=90;exitDy=25.5;exitPerimeter=0;" parent="wz36yzEruvP4x7EnCw-V-7" source="wz36yzEruvP4x7EnCw-V-8" target="wz36yzEruvP4x7EnCw-V-9" edge="1">
          <mxGeometry width="50" height="50" relative="1" as="geometry">
            <mxPoint x="284" y="109.23" as="sourcePoint" />
            <mxPoint x="364" y="109.23" as="targetPoint" />
          </mxGeometry>
        </mxCell>
        <mxCell id="wz36yzEruvP4x7EnCw-V-16" value="&lt;font style=&quot;font-size: 12px;&quot;&gt;&lt;b&gt;Imagem é enviada &lt;br&gt;para o serviço de OCR&lt;/b&gt;&lt;/font&gt;" style="rounded=1;whiteSpace=wrap;html=1;arcSize=40;fontColor=#000000;fillColor=#ffffc0;strokeColor=#ff0000;" parent="wz36yzEruvP4x7EnCw-V-7" vertex="1">
          <mxGeometry x="488" y="192.5" width="170" height="50" as="geometry" />
        </mxCell>
        <mxCell id="wz36yzEruvP4x7EnCw-V-21" value="&lt;b&gt;Cancela o salvamento da imagem&lt;br&gt;&lt;/b&gt;" style="rounded=1;whiteSpace=wrap;html=1;arcSize=40;fontColor=#000000;fillColor=#ffffc0;strokeColor=#ff0000;" parent="wz36yzEruvP4x7EnCw-V-7" vertex="1">
          <mxGeometry x="400" y="460" width="170" height="50" as="geometry" />
        </mxCell>
        <mxCell id="wz36yzEruvP4x7EnCw-V-22" value="&lt;b&gt;Exibe mensagem de erro&lt;/b&gt;" style="rounded=1;whiteSpace=wrap;html=1;arcSize=40;fontColor=#000000;fillColor=#ffffc0;strokeColor=#ff0000;" parent="wz36yzEruvP4x7EnCw-V-7" vertex="1">
          <mxGeometry x="85" y="400" width="190" height="60" as="geometry" />
        </mxCell>
        <mxCell id="wz36yzEruvP4x7EnCw-V-23" value="" style="edgeStyle=orthogonalEdgeStyle;html=1;verticalAlign=bottom;endArrow=open;endSize=8;strokeColor=#ff0000;rounded=0;exitX=0;exitY=0.5;exitDx=0;exitDy=0;entryX=1;entryY=0.5;entryDx=0;entryDy=0;" parent="wz36yzEruvP4x7EnCw-V-7" source="wz36yzEruvP4x7EnCw-V-21" target="wz36yzEruvP4x7EnCw-V-22" edge="1">
          <mxGeometry relative="1" as="geometry">
            <mxPoint x="820" y="465" as="targetPoint" />
            <Array as="points">
              <mxPoint x="378" y="485" />
              <mxPoint x="378" y="430" />
            </Array>
          </mxGeometry>
        </mxCell>
        <mxCell id="wz36yzEruvP4x7EnCw-V-51" value="" style="ellipse;html=1;shape=endState;fillColor=#000000;strokeColor=#ff0000;" parent="wz36yzEruvP4x7EnCw-V-7" vertex="1">
          <mxGeometry x="166" y="720" width="30" height="30" as="geometry" />
        </mxCell>
        <mxCell id="wz36yzEruvP4x7EnCw-V-54" value="&lt;font style=&quot;font-size: 15px;&quot;&gt;Cliente&lt;/font&gt;" style="html=1;whiteSpace=wrap;" parent="wz36yzEruvP4x7EnCw-V-7" vertex="1">
          <mxGeometry y="30" width="360" height="30" as="geometry" />
        </mxCell>
        <mxCell id="wz36yzEruvP4x7EnCw-V-55" value="&lt;font style=&quot;font-size: 15px;&quot;&gt;Servidor&lt;/font&gt;" style="html=1;whiteSpace=wrap;" parent="wz36yzEruvP4x7EnCw-V-7" vertex="1">
          <mxGeometry x="360" y="30" width="364" height="30" as="geometry" />
        </mxCell>
        <mxCell id="wz36yzEruvP4x7EnCw-V-56" value="" style="endArrow=none;html=1;rounded=0;entryX=1;entryY=0.5;entryDx=0;entryDy=0;" parent="wz36yzEruvP4x7EnCw-V-7" edge="1">
          <mxGeometry width="50" height="50" relative="1" as="geometry">
            <mxPoint x="360" y="890" as="sourcePoint" />
            <mxPoint x="360" y="45" as="targetPoint" />
          </mxGeometry>
        </mxCell>
        <mxCell id="wz36yzEruvP4x7EnCw-V-64" value="" style="edgeStyle=orthogonalEdgeStyle;html=1;verticalAlign=bottom;endArrow=open;endSize=8;strokeColor=#ff0000;rounded=0;exitX=0.5;exitY=1;exitDx=0;exitDy=0;entryX=0.5;entryY=0;entryDx=0;entryDy=0;" parent="wz36yzEruvP4x7EnCw-V-7" source="wz36yzEruvP4x7EnCw-V-22" target="wz36yzEruvP4x7EnCw-V-51" edge="1">
          <mxGeometry relative="1" as="geometry">
            <mxPoint x="554.38" y="800" as="targetPoint" />
            <mxPoint x="554.38" y="665" as="sourcePoint" />
          </mxGeometry>
        </mxCell>
        <mxCell id="D2q2hoNaxWQnG8xuTikW-53" value="&lt;font style=&quot;font-size: 12px;&quot;&gt;&lt;b&gt;O retorno do serviço&lt;br&gt; é válido&lt;/b&gt;&lt;/font&gt;" style="rhombus;whiteSpace=wrap;html=1;fontColor=#000000;fillColor=#ffffc0;strokeColor=#ff0000;" vertex="1" parent="wz36yzEruvP4x7EnCw-V-7">
          <mxGeometry x="390" y="320" width="190" height="90" as="geometry" />
        </mxCell>
        <mxCell id="D2q2hoNaxWQnG8xuTikW-55" value="" style="edgeStyle=orthogonalEdgeStyle;html=1;verticalAlign=bottom;endArrow=open;endSize=8;strokeColor=#ff0000;rounded=0;exitX=0.5;exitY=1;exitDx=0;exitDy=0;entryX=0.5;entryY=0;entryDx=0;entryDy=0;" edge="1" parent="wz36yzEruvP4x7EnCw-V-7" source="wz36yzEruvP4x7EnCw-V-16" target="D2q2hoNaxWQnG8xuTikW-53">
          <mxGeometry relative="1" as="geometry">
            <mxPoint x="541.7" y="370" as="targetPoint" />
            <mxPoint x="541.7" y="310" as="sourcePoint" />
          </mxGeometry>
        </mxCell>
        <mxCell id="D2q2hoNaxWQnG8xuTikW-56" value="&lt;font style=&quot;font-size: 15px;&quot;&gt;[&lt;/font&gt;&lt;font style=&quot;font-size: 15px;&quot;&gt;Não]&lt;/font&gt;" style="edgeStyle=orthogonalEdgeStyle;html=1;align=left;verticalAlign=top;endArrow=open;endSize=8;strokeColor=#ff0000;rounded=0;entryX=0.5;entryY=0;entryDx=0;entryDy=0;" edge="1" parent="wz36yzEruvP4x7EnCw-V-7" target="wz36yzEruvP4x7EnCw-V-21">
          <mxGeometry x="-1" y="-48" relative="1" as="geometry">
            <mxPoint x="484.63" y="480" as="targetPoint" />
            <mxPoint y="-11" as="offset" />
            <mxPoint x="484.63" y="410" as="sourcePoint" />
          </mxGeometry>
        </mxCell>
        <mxCell id="D2q2hoNaxWQnG8xuTikW-57" value="&lt;font style=&quot;font-size: 15px;&quot;&gt;[&lt;/font&gt;&lt;font style=&quot;font-size: 15px;&quot;&gt;Sim]&lt;/font&gt;" style="edgeStyle=orthogonalEdgeStyle;html=1;align=left;verticalAlign=top;endArrow=open;endSize=8;strokeColor=#ff0000;rounded=0;entryX=0.75;entryY=0;entryDx=0;entryDy=0;exitX=1;exitY=0.5;exitDx=0;exitDy=0;" edge="1" parent="wz36yzEruvP4x7EnCw-V-7" target="D2q2hoNaxWQnG8xuTikW-58" source="D2q2hoNaxWQnG8xuTikW-53">
          <mxGeometry x="-0.9387" y="30" relative="1" as="geometry">
            <mxPoint x="570" y="615" as="targetPoint" />
            <mxPoint as="offset" />
            <mxPoint x="621" y="520" as="sourcePoint" />
          </mxGeometry>
        </mxCell>
        <mxCell id="D2q2hoNaxWQnG8xuTikW-58" value="&lt;b&gt;Salva imagem e o retorno &lt;br&gt;em JSON no diretório&lt;br&gt;&lt;/b&gt;" style="rounded=1;whiteSpace=wrap;html=1;arcSize=40;fontColor=#000000;fillColor=#ffffc0;strokeColor=#ff0000;" vertex="1" parent="wz36yzEruvP4x7EnCw-V-7">
          <mxGeometry x="530" y="590" width="180" height="50" as="geometry" />
        </mxCell>
        <mxCell id="D2q2hoNaxWQnG8xuTikW-59" value="" style="edgeStyle=orthogonalEdgeStyle;html=1;verticalAlign=bottom;endArrow=open;endSize=8;strokeColor=#ff0000;rounded=0;exitX=0.25;exitY=1;exitDx=0;exitDy=0;entryX=0.5;entryY=0;entryDx=0;entryDy=0;" edge="1" parent="wz36yzEruvP4x7EnCw-V-7" source="D2q2hoNaxWQnG8xuTikW-58" target="D2q2hoNaxWQnG8xuTikW-60">
          <mxGeometry relative="1" as="geometry">
            <mxPoint x="601" y="705" as="targetPoint" />
          </mxGeometry>
        </mxCell>
        <mxCell id="D2q2hoNaxWQnG8xuTikW-60" value="&lt;font style=&quot;font-size: 14px;&quot;&gt;&lt;b style=&quot;font-size: 12px;&quot;&gt;&lt;font style=&quot;font-size: 12px;&quot;&gt;Redireciona usuário para a correção do texto transcrito&lt;br&gt;&lt;/font&gt;&lt;/b&gt;&lt;/font&gt;" style="rounded=1;whiteSpace=wrap;html=1;arcSize=40;fontColor=#000000;fillColor=#ffffc0;strokeColor=#ff0000;" vertex="1" parent="wz36yzEruvP4x7EnCw-V-7">
          <mxGeometry x="480" y="705" width="190" height="60" as="geometry" />
        </mxCell>
        <mxCell id="D2q2hoNaxWQnG8xuTikW-61" value="" style="edgeStyle=orthogonalEdgeStyle;html=1;verticalAlign=bottom;endArrow=open;endSize=8;strokeColor=#ff0000;rounded=0;exitX=0;exitY=0.5;exitDx=0;exitDy=0;entryX=1;entryY=0.5;entryDx=0;entryDy=0;" edge="1" parent="wz36yzEruvP4x7EnCw-V-7" source="D2q2hoNaxWQnG8xuTikW-60" target="wz36yzEruvP4x7EnCw-V-51">
          <mxGeometry relative="1" as="geometry">
            <mxPoint x="401" y="755" as="targetPoint" />
            <mxPoint x="401" y="710" as="sourcePoint" />
          </mxGeometry>
        </mxCell>
        <mxCell id="wz36yzEruvP4x7EnCw-V-28" value="" style="swimlane;whiteSpace=wrap;html=1;startSize=30;container=0;" parent="1" vertex="1">
          <mxGeometry x="1400" y="80" width="920" height="1080" as="geometry" />
        </mxCell>
        <mxCell id="D2q2hoNaxWQnG8xuTikW-64" value="" style="endArrow=none;html=1;rounded=0;entryX=0;entryY=0;entryDx=0;entryDy=0;" edge="1" parent="wz36yzEruvP4x7EnCw-V-28">
          <mxGeometry width="50" height="50" relative="1" as="geometry">
            <mxPoint x="409" y="1080" as="sourcePoint" />
            <mxPoint x="408.99999999999955" y="1.1368683772161603e-13" as="targetPoint" />
          </mxGeometry>
        </mxCell>
        <mxCell id="D2q2hoNaxWQnG8xuTikW-37" value="" style="edgeStyle=orthogonalEdgeStyle;html=1;align=left;verticalAlign=top;endArrow=open;endSize=8;strokeColor=#ff0000;rounded=0;entryX=0.5;entryY=0;entryDx=0;entryDy=0;exitX=0.5;exitY=1;exitDx=0;exitDy=0;" edge="1" parent="1" source="D2q2hoNaxWQnG8xuTikW-31" target="D2q2hoNaxWQnG8xuTikW-38">
          <mxGeometry x="-1" relative="1" as="geometry">
            <mxPoint x="1597" y="950" as="targetPoint" />
            <mxPoint x="1596.45" y="918" as="sourcePoint" />
          </mxGeometry>
        </mxCell>
        <mxCell id="D2q2hoNaxWQnG8xuTikW-38" value="&lt;b&gt;Envia a redação para o servidor sempre&lt;br&gt; que o usuário modifica o texto&lt;br&gt;&lt;/b&gt;" style="rounded=1;whiteSpace=wrap;html=1;arcSize=40;fontColor=#000000;fillColor=#ffffc0;strokeColor=#ff0000;" vertex="1" parent="1">
          <mxGeometry x="1480" y="930" width="255" height="50" as="geometry" />
        </mxCell>
        <mxCell id="D2q2hoNaxWQnG8xuTikW-49" value="" style="edgeStyle=orthogonalEdgeStyle;html=1;align=left;verticalAlign=top;endArrow=open;endSize=8;strokeColor=#ff0000;rounded=0;entryX=0.5;entryY=0;entryDx=0;entryDy=0;exitX=0.5;exitY=1;exitDx=0;exitDy=0;" edge="1" parent="1">
          <mxGeometry x="-1" relative="1" as="geometry">
            <mxPoint x="1606.58" y="1010" as="targetPoint" />
            <mxPoint x="1606.58" y="980" as="sourcePoint" />
            <Array as="points">
              <mxPoint x="1606.58" y="1000" />
              <mxPoint x="1606.58" y="1000" />
            </Array>
          </mxGeometry>
        </mxCell>
        <mxCell id="wz36yzEruvP4x7EnCw-V-47" value="&lt;font style=&quot;font-size: 15px;&quot;&gt;Servidor&lt;/font&gt;" style="html=1;whiteSpace=wrap;" parent="1" vertex="1">
          <mxGeometry x="1799" y="80" width="520" height="30" as="geometry" />
        </mxCell>
        <mxCell id="wz36yzEruvP4x7EnCw-V-63" value="&lt;b&gt;A escrita foi feita &lt;br&gt;com OCR&lt;/b&gt;" style="rhombus;whiteSpace=wrap;html=1;fontColor=#000000;fillColor=#ffffc0;strokeColor=#ff0000;" parent="1" vertex="1">
          <mxGeometry x="1940" y="187.75" width="179" height="89.5" as="geometry" />
        </mxCell>
        <mxCell id="wz36yzEruvP4x7EnCw-V-61" value="&lt;font style=&quot;font-size: 15px;&quot;&gt;[Não]&lt;/font&gt;" style="edgeStyle=orthogonalEdgeStyle;html=1;align=left;verticalAlign=bottom;endArrow=open;endSize=8;strokeColor=#ff0000;rounded=0;exitX=1;exitY=0.5;exitDx=0;exitDy=0;entryX=0.5;entryY=0;entryDx=0;entryDy=0;" parent="1" edge="1" target="wz36yzEruvP4x7EnCw-V-43" source="wz36yzEruvP4x7EnCw-V-63">
          <mxGeometry x="-0.9877" relative="1" as="geometry">
            <mxPoint x="2241" y="307.5" as="targetPoint" />
            <mxPoint x="2285.9999999999995" y="220" as="sourcePoint" />
            <mxPoint as="offset" />
            <Array as="points">
              <mxPoint x="2205" y="232" />
            </Array>
          </mxGeometry>
        </mxCell>
        <mxCell id="wz36yzEruvP4x7EnCw-V-62" value="&lt;font style=&quot;font-size: 15px;&quot;&gt;[Sim]&lt;/font&gt;" style="edgeStyle=orthogonalEdgeStyle;html=1;align=left;verticalAlign=top;endArrow=open;endSize=8;strokeColor=#ff0000;rounded=0;exitX=0.5;exitY=1;exitDx=0;exitDy=0;entryX=0.5;entryY=0;entryDx=0;entryDy=0;" parent="1" edge="1" target="D2q2hoNaxWQnG8xuTikW-1" source="wz36yzEruvP4x7EnCw-V-63">
          <mxGeometry x="-1" y="12" relative="1" as="geometry">
            <mxPoint x="2075" y="427.5" as="targetPoint" />
            <mxPoint x="1999.9999999999995" y="364.75" as="sourcePoint" />
            <Array as="points">
              <mxPoint x="2030" y="300" />
              <mxPoint x="1935" y="300" />
            </Array>
            <mxPoint x="-3" y="-7" as="offset" />
          </mxGeometry>
        </mxCell>
        <mxCell id="D2q2hoNaxWQnG8xuTikW-9" value="" style="edgeStyle=orthogonalEdgeStyle;html=1;align=left;verticalAlign=top;endArrow=open;endSize=8;strokeColor=#ff0000;rounded=0;exitX=0.5;exitY=1;exitDx=0;exitDy=0;entryX=0.5;entryY=0;entryDx=0;entryDy=0;" edge="1" parent="1" source="D2q2hoNaxWQnG8xuTikW-1" target="D2q2hoNaxWQnG8xuTikW-21">
          <mxGeometry x="-1" y="12" relative="1" as="geometry">
            <mxPoint x="2094" y="547.5" as="targetPoint" />
            <mxPoint x="2094.8399999999997" y="517.5" as="sourcePoint" />
            <mxPoint x="-3" y="-7" as="offset" />
            <Array as="points">
              <mxPoint x="1935" y="430" />
              <mxPoint x="1910" y="430" />
              <mxPoint x="1910" y="460" />
            </Array>
          </mxGeometry>
        </mxCell>
        <mxCell id="D2q2hoNaxWQnG8xuTikW-1" value="&lt;b&gt;Redireciona usuário para a página de transcrição &lt;br&gt;do OCR&lt;br&gt;&lt;/b&gt;" style="rounded=1;whiteSpace=wrap;html=1;arcSize=40;fontColor=#000000;fillColor=#ffffc0;strokeColor=#ff0000;" vertex="1" parent="1">
          <mxGeometry x="1840" y="320" width="190" height="70" as="geometry" />
        </mxCell>
        <mxCell id="D2q2hoNaxWQnG8xuTikW-23" value="&lt;font style=&quot;font-size: 15px;&quot;&gt;[Sim]&lt;/font&gt;" style="edgeStyle=orthogonalEdgeStyle;html=1;align=left;verticalAlign=top;endArrow=open;endSize=8;strokeColor=#ff0000;rounded=0;exitX=0;exitY=0.5;exitDx=0;exitDy=0;entryX=0.5;entryY=0;entryDx=0;entryDy=0;" edge="1" parent="1" source="D2q2hoNaxWQnG8xuTikW-21" target="D2q2hoNaxWQnG8xuTikW-25">
          <mxGeometry x="-0.8363" y="3" relative="1" as="geometry">
            <mxPoint x="1650" y="520" as="targetPoint" />
            <Array as="points">
              <mxPoint x="1608" y="507" />
            </Array>
            <mxPoint as="offset" />
          </mxGeometry>
        </mxCell>
        <mxCell id="D2q2hoNaxWQnG8xuTikW-62" value="" style="edgeStyle=orthogonalEdgeStyle;html=1;verticalAlign=bottom;endArrow=open;endSize=8;strokeColor=#ff0000;rounded=0;exitX=1;exitY=0.5;exitDx=0;exitDy=0;entryX=0;entryY=0.5;entryDx=0;entryDy=0;" edge="1" parent="1" source="wz36yzEruvP4x7EnCw-V-32" target="wz36yzEruvP4x7EnCw-V-63">
          <mxGeometry relative="1" as="geometry">
            <mxPoint x="1745" y="220" as="targetPoint" />
            <mxPoint x="1744" y="185" as="sourcePoint" />
          </mxGeometry>
        </mxCell>
        <mxCell id="wz36yzEruvP4x7EnCw-V-30" value="" style="ellipse;html=1;shape=startState;fillColor=#000000;strokeColor=#ff0000;" parent="1" vertex="1">
          <mxGeometry x="1589" y="135" width="30" height="30" as="geometry" />
        </mxCell>
        <mxCell id="wz36yzEruvP4x7EnCw-V-31" value="" style="edgeStyle=orthogonalEdgeStyle;html=1;verticalAlign=bottom;endArrow=open;endSize=8;strokeColor=#ff0000;rounded=0;exitX=0.5;exitY=1;exitDx=0;exitDy=0;entryX=0.5;entryY=0;entryDx=0;entryDy=0;" parent="1" source="wz36yzEruvP4x7EnCw-V-30" target="wz36yzEruvP4x7EnCw-V-32" edge="1">
          <mxGeometry relative="1" as="geometry">
            <mxPoint x="1265" y="235" as="targetPoint" />
          </mxGeometry>
        </mxCell>
        <mxCell id="wz36yzEruvP4x7EnCw-V-32" value="&lt;b&gt;Usuário autenticado clica para continuar a escrita&lt;br&gt;&lt;/b&gt;" style="rounded=1;whiteSpace=wrap;html=1;arcSize=40;fontColor=#000000;fillColor=#ffffc0;strokeColor=#ff0000;" parent="1" vertex="1">
          <mxGeometry x="1505" y="200" width="199" height="65" as="geometry" />
        </mxCell>
        <mxCell id="wz36yzEruvP4x7EnCw-V-48" value="&lt;font style=&quot;font-size: 15px;&quot;&gt;Cliente&lt;/font&gt;" style="html=1;whiteSpace=wrap;" parent="1" vertex="1">
          <mxGeometry x="1400" y="80" width="409" height="30" as="geometry" />
        </mxCell>
        <mxCell id="D2q2hoNaxWQnG8xuTikW-25" value="&lt;b&gt;Identifica os parágrafos &lt;br&gt;da redação utilizando cálculo&lt;br&gt; de desvio padrão&lt;br&gt;&lt;/b&gt;" style="rounded=1;whiteSpace=wrap;html=1;arcSize=40;fontColor=#000000;fillColor=#ffffc0;strokeColor=#ff0000;" vertex="1" parent="1">
          <mxGeometry x="1512.5" y="530" width="191.5" height="69.64" as="geometry" />
        </mxCell>
        <mxCell id="D2q2hoNaxWQnG8xuTikW-13" value="&lt;b&gt;Mostra o texto para o usuário&lt;br&gt;&lt;/b&gt;" style="rounded=1;whiteSpace=wrap;html=1;arcSize=40;fontColor=#000000;fillColor=#ffffc0;strokeColor=#ff0000;" vertex="1" parent="1">
          <mxGeometry x="1506.95" y="780" width="200" height="50" as="geometry" />
        </mxCell>
        <mxCell id="D2q2hoNaxWQnG8xuTikW-20" value="" style="edgeStyle=orthogonalEdgeStyle;html=1;align=left;verticalAlign=top;endArrow=open;endSize=8;strokeColor=#ff0000;rounded=0;exitX=0.5;exitY=1;exitDx=0;exitDy=0;entryX=0.25;entryY=0.5;entryDx=0;entryDy=0;entryPerimeter=0;" edge="1" parent="1" source="D2q2hoNaxWQnG8xuTikW-25" target="D2q2hoNaxWQnG8xuTikW-27">
          <mxGeometry x="-1" relative="1" as="geometry">
            <mxPoint x="1702.95" y="820" as="targetPoint" />
            <mxPoint x="1702.95" y="770" as="sourcePoint" />
            <Array as="points">
              <mxPoint x="1608" y="660" />
              <mxPoint x="1554" y="660" />
            </Array>
          </mxGeometry>
        </mxCell>
        <mxCell id="D2q2hoNaxWQnG8xuTikW-27" value="" style="shape=line;html=1;strokeWidth=6;strokeColor=#ff0000;" vertex="1" parent="1">
          <mxGeometry x="1500" y="740" width="217.95" height="10" as="geometry" />
        </mxCell>
        <mxCell id="D2q2hoNaxWQnG8xuTikW-30" value="" style="edgeStyle=orthogonalEdgeStyle;html=1;align=left;verticalAlign=top;endArrow=open;endSize=8;strokeColor=#ff0000;rounded=0;entryX=0.5;entryY=0;entryDx=0;entryDy=0;" edge="1" parent="1" target="D2q2hoNaxWQnG8xuTikW-13">
          <mxGeometry x="-1" relative="1" as="geometry">
            <mxPoint x="1606.95" y="780" as="targetPoint" />
            <mxPoint x="1606.45" y="748" as="sourcePoint" />
          </mxGeometry>
        </mxCell>
        <mxCell id="D2q2hoNaxWQnG8xuTikW-26" value="" style="edgeStyle=orthogonalEdgeStyle;html=1;align=left;verticalAlign=top;endArrow=open;endSize=8;strokeColor=#ff0000;rounded=0;entryX=0.75;entryY=0.5;entryDx=0;entryDy=0;entryPerimeter=0;" edge="1" parent="1" target="D2q2hoNaxWQnG8xuTikW-27">
          <mxGeometry x="-1" relative="1" as="geometry">
            <mxPoint x="1463.95" y="820" as="targetPoint" />
            <mxPoint x="1930" y="670" as="sourcePoint" />
            <Array as="points">
              <mxPoint x="1664" y="670" />
            </Array>
          </mxGeometry>
        </mxCell>
        <mxCell id="D2q2hoNaxWQnG8xuTikW-31" value="&lt;b&gt;Desenha a imagem e destaca &lt;br&gt;cada palavra no canvas&lt;br&gt;&lt;/b&gt;" style="rounded=1;whiteSpace=wrap;html=1;arcSize=40;fontColor=#000000;fillColor=#ffffc0;strokeColor=#ff0000;" vertex="1" parent="1">
          <mxGeometry x="1507.5" y="850" width="200" height="50" as="geometry" />
        </mxCell>
        <mxCell id="D2q2hoNaxWQnG8xuTikW-35" value="" style="edgeStyle=orthogonalEdgeStyle;html=1;align=left;verticalAlign=top;endArrow=open;endSize=8;strokeColor=#ff0000;rounded=0;entryX=0.5;entryY=0;entryDx=0;entryDy=0;exitX=0.5;exitY=1;exitDx=0;exitDy=0;" edge="1" parent="1" source="D2q2hoNaxWQnG8xuTikW-13" target="D2q2hoNaxWQnG8xuTikW-31">
          <mxGeometry x="-1" relative="1" as="geometry">
            <mxPoint x="1606.95" y="860" as="targetPoint" />
            <mxPoint x="1606.45" y="828" as="sourcePoint" />
          </mxGeometry>
        </mxCell>
        <mxCell id="D2q2hoNaxWQnG8xuTikW-46" value="&lt;b&gt;Usuário clicou em&lt;br&gt;&quot;Enviar para avaliação&quot;&lt;/b&gt;" style="rhombus;whiteSpace=wrap;html=1;fontColor=#000000;fillColor=#ffffc0;strokeColor=#ff0000;" vertex="1" parent="1">
          <mxGeometry x="1507.5" y="1010" width="200" height="80" as="geometry" />
        </mxCell>
        <mxCell id="D2q2hoNaxWQnG8xuTikW-63" value="" style="edgeStyle=orthogonalEdgeStyle;html=1;align=left;verticalAlign=top;endArrow=open;endSize=8;strokeColor=#ff0000;rounded=0;entryX=0;entryY=0.5;entryDx=0;entryDy=0;exitX=1;exitY=0.5;exitDx=0;exitDy=0;" edge="1" parent="1" source="D2q2hoNaxWQnG8xuTikW-38" target="D2q2hoNaxWQnG8xuTikW-45">
          <mxGeometry x="-1" relative="1" as="geometry">
            <mxPoint x="1340" y="880" as="targetPoint" />
            <mxPoint x="1770" y="1000" as="sourcePoint" />
            <Array as="points">
              <mxPoint x="1770" y="955" />
              <mxPoint x="1770" y="880" />
              <mxPoint x="1945" y="880" />
            </Array>
          </mxGeometry>
        </mxCell>
        <mxCell id="wz36yzEruvP4x7EnCw-V-43" value="&lt;b&gt;Redireciona usuário para a página de escrita padrão&lt;br&gt;&lt;/b&gt;" style="rounded=1;whiteSpace=wrap;html=1;arcSize=40;fontColor=#000000;fillColor=#ffffc0;strokeColor=#ff0000;" parent="1" vertex="1">
          <mxGeometry x="2119" y="310" width="171" height="70" as="geometry" />
        </mxCell>
        <mxCell id="wz36yzEruvP4x7EnCw-V-65" value="" style="edgeStyle=orthogonalEdgeStyle;html=1;align=left;verticalAlign=top;endArrow=open;endSize=8;strokeColor=#ff0000;rounded=0;exitX=0.5;exitY=1;exitDx=0;exitDy=0;entryX=0.5;entryY=0;entryDx=0;entryDy=0;" parent="1" edge="1" target="wz36yzEruvP4x7EnCw-V-66">
          <mxGeometry x="-1" y="12" relative="1" as="geometry">
            <mxPoint x="2204.87" y="461" as="targetPoint" />
            <mxPoint x="2204.1199999999994" y="379" as="sourcePoint" />
            <mxPoint x="-3" y="-7" as="offset" />
          </mxGeometry>
        </mxCell>
        <mxCell id="wz36yzEruvP4x7EnCw-V-66" value="" style="ellipse;html=1;shape=endState;fillColor=#000000;strokeColor=#ff0000;" parent="1" vertex="1">
          <mxGeometry x="2189.5" y="530" width="30" height="30" as="geometry" />
        </mxCell>
        <mxCell id="D2q2hoNaxWQnG8xuTikW-48" value="[SIM]" style="edgeStyle=orthogonalEdgeStyle;html=1;align=left;verticalAlign=top;endArrow=open;endSize=8;strokeColor=#ff0000;rounded=0;exitX=1;exitY=0.5;exitDx=0;exitDy=0;" edge="1" source="D2q2hoNaxWQnG8xuTikW-46" parent="1">
          <mxGeometry x="-1" y="21" relative="1" as="geometry">
            <mxPoint x="1920" y="1050" as="targetPoint" />
            <mxPoint x="1947.5" y="1030" as="sourcePoint" />
            <Array as="points">
              <mxPoint x="1800.5" y="1050" />
              <mxPoint x="1800.5" y="1050" />
            </Array>
            <mxPoint x="-7" y="1" as="offset" />
          </mxGeometry>
        </mxCell>
        <mxCell id="D2q2hoNaxWQnG8xuTikW-50" value="&lt;b&gt;Envia uma redação conforme&lt;br&gt; os padrões do sistema RevisãoOnline&lt;/b&gt;" style="rounded=1;whiteSpace=wrap;html=1;arcSize=40;fontColor=#000000;fillColor=#ffffc0;strokeColor=#ff0000;" vertex="1" parent="1">
          <mxGeometry x="1919.87" y="1010" width="199.13" height="75" as="geometry" />
        </mxCell>
        <mxCell id="D2q2hoNaxWQnG8xuTikW-51" value="" style="edgeStyle=orthogonalEdgeStyle;html=1;align=left;verticalAlign=top;endArrow=open;endSize=8;strokeColor=#ff0000;rounded=0;exitX=1;exitY=0.5;exitDx=0;exitDy=0;entryX=0;entryY=0.5;entryDx=0;entryDy=0;" edge="1" parent="1" source="D2q2hoNaxWQnG8xuTikW-50" target="D2q2hoNaxWQnG8xuTikW-52">
          <mxGeometry x="-0.8603" relative="1" as="geometry">
            <mxPoint x="2150.5" y="974" as="targetPoint" />
            <mxPoint x="2268.5" y="1024" as="sourcePoint" />
            <mxPoint as="offset" />
          </mxGeometry>
        </mxCell>
        <mxCell id="D2q2hoNaxWQnG8xuTikW-52" value="" style="ellipse;html=1;shape=endState;fillColor=#000000;strokeColor=#ff0000;" vertex="1" parent="1">
          <mxGeometry x="2210" y="1032.5" width="30" height="30" as="geometry" />
        </mxCell>
        <mxCell id="D2q2hoNaxWQnG8xuTikW-21" value="&lt;b&gt;Possui texto salvo&lt;br&gt; no banco de dados&lt;/b&gt;" style="rhombus;whiteSpace=wrap;html=1;fontColor=#000000;fillColor=#ffffc0;strokeColor=#ff0000;" vertex="1" parent="1">
          <mxGeometry x="1830" y="460" width="161.87" height="94.5" as="geometry" />
        </mxCell>
        <mxCell id="D2q2hoNaxWQnG8xuTikW-4" value="&lt;b&gt;Busca o texto da redação no banco de dados&lt;br&gt;&lt;/b&gt;" style="rounded=1;whiteSpace=wrap;html=1;arcSize=40;fontColor=#000000;fillColor=#ffffc0;strokeColor=#ff0000;" vertex="1" parent="1">
          <mxGeometry x="1927.5" y="640" width="191.5" height="69.64" as="geometry" />
        </mxCell>
        <mxCell id="D2q2hoNaxWQnG8xuTikW-22" value="&lt;font style=&quot;font-size: 15px;&quot;&gt;[Não]&lt;/font&gt;" style="edgeStyle=orthogonalEdgeStyle;html=1;align=left;verticalAlign=bottom;endArrow=open;endSize=8;strokeColor=#ff0000;rounded=0;exitX=1;exitY=0.5;exitDx=0;exitDy=0;entryX=0.5;entryY=0;entryDx=0;entryDy=0;" edge="1" parent="1" source="D2q2hoNaxWQnG8xuTikW-21" target="D2q2hoNaxWQnG8xuTikW-4">
          <mxGeometry x="-0.8434" y="3" relative="1" as="geometry">
            <mxPoint x="2150" y="640" as="targetPoint" />
            <mxPoint as="offset" />
          </mxGeometry>
        </mxCell>
        <mxCell id="D2q2hoNaxWQnG8xuTikW-45" value="&lt;b&gt;Salva a redação no banco de dados&lt;br&gt;&lt;/b&gt;" style="rounded=1;whiteSpace=wrap;html=1;arcSize=40;fontColor=#000000;fillColor=#ffffc0;strokeColor=#ff0000;" vertex="1" parent="1">
          <mxGeometry x="1944.94" y="850" width="149" height="50" as="geometry" />
        </mxCell>
      </root>
    </mxGraphModel>
  </diagram>
</mxfile>
